<svg xmlns="http://www.w3.org/2000/svg" viewBox="0 0 32 32">
  <rect width="32" height="32" rx="4" fill="#0b1f3a"/>
  <g fill="#e8b84b">
    <!-- 中心リング（大きめ） -->
    <path d="M16 6.5a9.5 9.5 0 100 19 9.5 9.5 0 000-19zm0 3a6.5 6.5 0 110 13 6.5 6.5 0 010-13z"/>
    <!-- 歯（8方向、枠ギリギリまで張り出し） -->
    <rect x="13.7" y="0" width="4.6" height="5" rx="1"/>
    <rect x="13.7" y="27" width="4.6" height="5" rx="1"/>
    <rect x="0" y="13.7" width="5" height="4.6" rx="1"/>
    <rect x="27" y="13.7" width="5" height="4.6" rx="1"/>
    <rect x="4" y="2.6" width="4.6" height="5" rx="1" transform="rotate(45 6.3 5.1)"/>
    <rect x="23.4" y="2.6" width="4.6" height="5" rx="1" transform="rotate(-45 25.7 5.1)"/>
    <rect x="4" y="24.4" width="4.6" height="5" rx="1" transform="rotate(-45 6.3 26.9)"/>
    <rect x="23.4" y="24.4" width="4.6" height="5" rx="1" transform="rotate(45 25.7 26.9)"/>
  </g>
</svg>
